<svg xmlns="http://www.w3.org/2000/svg" xmlns:xlink="http://www.w3.org/1999/xlink" width="500" zoomAndPan="magnify" viewBox="0 0 375 374.999991" height="500" preserveAspectRatio="xMidYMid meet" version="1.0"><defs><clipPath id="29bf03314b"><path d="M 238 45 L 277 45 L 277 84 L 238 84 Z M 238 45 " clip-rule="nonzero"/></clipPath><clipPath id="2a833c49c0"><path d="M 230.382812 62.78125 L 259.378906 37.496094 L 284.660156 66.492188 L 255.667969 91.773438 Z M 230.382812 62.78125 " clip-rule="nonzero"/></clipPath><clipPath id="487c175561"><path d="M 244.878906 50.136719 C 236.871094 57.121094 236.042969 69.269531 243.023438 77.277344 C 250.007812 85.285156 262.15625 86.113281 270.164062 79.132812 C 278.171875 72.152344 279 60 272.019531 51.992188 C 265.039062 43.984375 252.886719 43.15625 244.878906 50.136719 Z M 244.878906 50.136719 " clip-rule="nonzero"/></clipPath><clipPath id="6c857948f2"><path d="M 160.066406 75 L 289.816406 75 L 289.816406 334 L 160.066406 334 Z M 160.066406 75 " clip-rule="nonzero"/></clipPath><clipPath id="38f95976ea"><path d="M 84.980469 75 L 214.730469 75 L 214.730469 333 L 84.980469 333 Z M 84.980469 75 " clip-rule="nonzero"/></clipPath></defs><rect x="-37.5" width="450" fill="#ffffff" y="-37.499999" height="449.999989" fill-opacity="1"/><rect x="-37.5" width="450" fill="#ffffff" y="-37.499999" height="449.999989" fill-opacity="1"/><g clip-path="url(#29bf03314b)"><g clip-path="url(#2a833c49c0)"><g clip-path="url(#487c175561)"><path fill="#007bff" d="M 230.382812 62.78125 L 259.378906 37.496094 L 284.660156 66.492188 L 255.667969 91.773438 Z M 230.382812 62.78125 " fill-opacity="1" fill-rule="nonzero"/></g></g></g><g clip-path="url(#6c857948f2)"><path fill="#007bff" d="M 290.015625 75.539062 L 290.015625 289.371094 L 246.175781 333.167969 L 160.066406 262.664062 L 160.066406 204.746094 L 246.175781 274.507812 L 246.175781 105.261719 Z M 290.015625 75.539062 " fill-opacity="1" fill-rule="nonzero"/></g><g clip-path="url(#38f95976ea)"><path fill="#007bff" d="M 84.980469 332.949219 L 84.980469 119.121094 L 128.777344 75.324219 L 214.929688 145.871094 L 214.929688 203.785156 L 128.777344 133.980469 L 128.777344 303.269531 Z M 84.980469 332.949219 " fill-opacity="1" fill-rule="nonzero"/></g></svg>